<svg width="16" height="16" viewBox="0 0 16 16" fill="none" xmlns="http://www.w3.org/2000/svg">
<g clip-path="url(#clip0_588_50)">
<g opacity="0.3">
<path opacity="0.3" d="M10.6446 3.28333C10.2801 3.28298 9.93066 3.13803 9.67294 2.88031C9.41521 2.62258 9.27027 2.27313 9.26992 1.90866V0H3.12725C2.65145 0 2.19514 0.189015 1.8587 0.525456C1.52226 0.861896 1.33325 1.3182 1.33325 1.79399V12.6087C1.33396 13.084 1.52328 13.5396 1.85964 13.8755C2.19601 14.2113 2.65191 14.4 3.12725 14.4H10.5013C10.9766 14.4 11.4325 14.2113 11.7689 13.8755C12.1052 13.5396 12.2945 13.084 12.2952 12.6087V3.28333H10.6446Z" fill="#D62926"/>
</g>
<path d="M12.2954 3.28333H10.6447C10.2802 3.28298 9.93076 3.13803 9.67304 2.88031C9.41532 2.62258 9.27037 2.27313 9.27002 1.90866V0L12.2954 3.28333Z" fill="#D62926"/>
<path d="M10.0399 10.0559H3.15723C3.09092 10.0559 3.02733 10.0295 2.98045 9.98263C2.93356 9.93574 2.90723 9.87216 2.90723 9.80585C2.9074 9.73966 2.93382 9.67624 2.98068 9.6295C3.02755 9.58276 3.09104 9.55652 3.15723 9.55652H10.0399C10.106 9.55652 10.1694 9.58277 10.2162 9.62953C10.263 9.67629 10.2892 9.73972 10.2892 9.80585C10.2893 9.83865 10.2829 9.87115 10.2704 9.90147C10.2579 9.9318 10.2396 9.95935 10.2164 9.98258C10.1933 10.0058 10.1658 10.0242 10.1355 10.0368C10.1052 10.0494 10.0727 10.0559 10.0399 10.0559Z" fill="#D62926"/>
<path d="M10.0399 7.24018H3.15723C3.09104 7.24018 3.02755 7.21392 2.98068 7.16718C2.93382 7.12044 2.9074 7.05703 2.90723 6.99084C2.90723 6.92454 2.93356 6.86094 2.98045 6.81405C3.02733 6.76717 3.09092 6.74084 3.15723 6.74084H10.0399C10.0727 6.74084 10.1052 6.74732 10.1355 6.75989C10.1658 6.77246 10.1933 6.79088 10.2164 6.8141C10.2396 6.83733 10.2579 6.8649 10.2704 6.89522C10.2829 6.92555 10.2893 6.95805 10.2892 6.99084C10.2892 7.05697 10.263 7.12039 10.2162 7.16715C10.1694 7.21391 10.106 7.24018 10.0399 7.24018Z" fill="#D62926"/>
<path d="M10.0399 8.64789H3.15723C3.09092 8.64789 3.02733 8.62155 2.98045 8.57467C2.93356 8.52778 2.90723 8.4642 2.90723 8.39789C2.9074 8.3317 2.93382 8.26828 2.98068 8.22154C3.02755 8.1748 3.09104 8.14856 3.15723 8.14856H10.0399C10.106 8.14856 10.1694 8.17483 10.2162 8.22159C10.263 8.26835 10.2892 8.33176 10.2892 8.39789C10.2893 8.43069 10.2829 8.46319 10.2704 8.49351C10.2579 8.52384 10.2396 8.55141 10.2164 8.57463C10.1933 8.59786 10.1658 8.61628 10.1355 8.62885C10.1052 8.64142 10.0727 8.64789 10.0399 8.64789Z" fill="#D62926"/>
<path d="M7.32523 5.8321H3.15723C3.09104 5.8321 3.02755 5.80585 2.98068 5.75911C2.93382 5.71237 2.9074 5.64895 2.90723 5.58276C2.90723 5.51646 2.93356 5.45287 2.98045 5.40599C3.02733 5.35911 3.09092 5.33276 3.15723 5.33276H7.32523C7.39142 5.33294 7.45483 5.35935 7.50157 5.40622C7.54831 5.45308 7.57456 5.51657 7.57456 5.58276C7.57438 5.64884 7.54806 5.71215 7.50134 5.75887C7.45462 5.80559 7.3913 5.83192 7.32523 5.8321Z" fill="#D62926"/>
<path d="M7.32523 4.42402H3.15723C3.09104 4.42402 3.02755 4.39776 2.98068 4.35102C2.93382 4.30428 2.9074 4.24087 2.90723 4.17468C2.90723 4.10838 2.93356 4.04478 2.98045 3.99789C3.02733 3.95101 3.09092 3.92468 3.15723 3.92468H7.32523C7.39142 3.92486 7.45483 3.95127 7.50157 3.99814C7.54831 4.045 7.57456 4.10849 7.57456 4.17468C7.57438 4.24076 7.54806 4.30407 7.50134 4.35079C7.45462 4.39751 7.3913 4.42384 7.32523 4.42402Z" fill="#D62926"/>
<path d="M13.5959 11.374H5.25988C4.66856 11.374 4.18921 11.8534 4.18921 12.4447V14.93C4.18921 15.5213 4.66856 16.0007 5.25988 16.0007H13.5959C14.1872 16.0007 14.6665 15.5213 14.6665 14.93V12.4447C14.6665 11.8534 14.1872 11.374 13.5959 11.374Z" fill="#D62926"/>
<path d="M6.92394 14.2252V14.7099H6.42261V14.2252H6.92394Z" fill="white"/>
<path d="M7.66118 14.0068V14.7101H7.17651V12.7054H7.96185C8.19985 12.7054 8.38185 12.7648 8.50651 12.8828C8.5696 12.9448 8.61884 13.0194 8.65102 13.1018C8.68319 13.1842 8.69756 13.2724 8.69318 13.3608C8.69561 13.4773 8.66684 13.5924 8.60985 13.6941C8.55165 13.7935 8.46537 13.8736 8.36185 13.9241C8.23698 13.9831 8.0999 14.0117 7.96185 14.0074L7.66118 14.0068ZM8.19985 13.3608C8.19985 13.183 8.10252 13.0941 7.90785 13.0941H7.66118V13.6161H7.90785C8.10252 13.6179 8.19985 13.5328 8.19985 13.3608Z" fill="white"/>
<path d="M10.6086 14.2268C10.5251 14.3784 10.399 14.5021 10.2459 14.5828C10.0736 14.671 9.88204 14.7147 9.68855 14.7101H8.93188V12.7055H9.68855C9.88218 12.7006 10.074 12.7434 10.2472 12.8301C10.3999 12.909 10.5257 13.0315 10.6086 13.1821C10.6953 13.342 10.7389 13.5216 10.7352 13.7034C10.7388 13.8859 10.6952 14.0662 10.6086 14.2268ZM10.0872 14.1261C10.1414 14.0705 10.1834 14.0042 10.2105 13.9314C10.2376 13.8586 10.2492 13.781 10.2446 13.7034C10.2492 13.626 10.2376 13.5485 10.2105 13.4758C10.1834 13.4031 10.1414 13.3369 10.0872 13.2814C9.96596 13.175 9.80757 13.1209 9.64655 13.1308H9.41655V14.2761H9.64655C9.80744 14.2859 9.96571 14.232 10.0872 14.1261Z" fill="white"/>
<path d="M12.3173 12.7054V13.0914H11.4953V13.5308H12.13V13.8994H11.4953V14.7101H11.01V12.7054H12.3173Z" fill="white"/>
<path d="M9.91785 3.92468H8.73918C8.53373 3.92468 8.36719 4.09123 8.36719 4.29668V5.47535C8.36719 5.6808 8.53373 5.84735 8.73918 5.84735H9.91785C10.1233 5.84735 10.2899 5.6808 10.2899 5.47535V4.29668C10.2899 4.09123 10.1233 3.92468 9.91785 3.92468Z" fill="#D62926"/>
</g>
<defs>
<clipPath id="clip0_588_50">
<rect width="16" height="16" fill="white"/>
</clipPath>
</defs>
</svg>
