<svg width="28" height="20" viewBox="0 0 28 20" fill="none" xmlns="http://www.w3.org/2000/svg">
<path d="M27.4165 3.24339C27.0958 2.03765 26.147 1.08645 24.9399 0.760454C22.7572 0.175446 14 0.175446 14 0.175446C14 0.175446 5.24722 0.175446 3.06013 0.760454C1.85746 1.08198 0.908686 2.03318 0.583519 3.24339C0 5.43158 0 10 0 10C0 10 0 14.5684 0.583519 16.7566C0.904232 17.9624 1.85301 18.9136 3.06013 19.2396C5.24722 19.8246 14 19.8246 14 19.8246C14 19.8246 22.7572 19.8246 24.9399 19.2396C26.1425 18.918 27.0913 17.9668 27.4165 16.7566C28 14.5684 28 10 28 10C28 10 28 5.43158 27.4165 3.24339Z" fill="#FF3000"/>
<path d="M11.2027 14.2112L18.4766 10L11.2027 5.78884V14.2112Z" fill="white"/>
</svg>
